<svg width="122" height="32" viewBox="0 0 122 32" fill="none" xmlns="http://www.w3.org/2000/svg">
<path d="M7.88573 0H16.0972C16.3299 0 16.5857 0 16.8184 0C18.63 0.127662 20.3875 0.67227 21.9533 1.59122C23.5191 2.51017 24.8507 3.77854 25.844 5.29706C26.8008 6.74471 27.4208 8.38796 27.6585 10.1062C26.2362 10.9635 24.9503 12.0285 23.8435 13.2659C23.8464 11.8912 23.5672 10.5305 23.023 9.26784C22.4789 8.00515 21.6815 6.86721 20.6799 5.92431C19.6117 4.91467 18.268 4.24367 16.8184 3.99599C16.2222 3.95001 15.6234 3.95001 15.0272 3.99599H3.95444C3.96826 3.46178 4.07859 2.93445 4.2801 2.43941C4.48295 1.96172 4.77858 1.52895 5.14991 1.16607C5.52124 0.803183 5.96089 0.51741 6.44348 0.325257C6.90834 0.155749 7.39304 0.0464407 7.88573 0Z" fill="#244A9A"/>
<path d="M0.0465163 11.9181H11.9567V15.8676C10.6308 15.8676 9.30482 15.8676 7.97889 15.8676H3.95454C2.65187 15.8676 1.32594 15.8676 0 15.8676L0.0465163 11.9181Z" fill="#244A9A"/>
<path d="M22.0298 25.0216C23.0425 24.0187 23.8348 22.8161 24.356 21.4902C23.8892 23.3957 23.2907 25.2665 22.5648 27.0893C22.0094 28.4159 21.1296 29.5822 20.006 30.4813C19.2328 31.0443 18.3421 31.4255 17.4007 31.5964C16.9091 31.6813 16.4107 31.7202 15.9119 31.7126H11.9108C11.0718 31.6416 10.2678 31.3445 9.58461 30.853C9.05095 30.4561 8.65291 29.9044 8.44477 29.2732C8.26585 28.7821 8.1791 28.2623 8.18889 27.7398H15.5862C16.2039 27.7483 16.8205 27.686 17.4239 27.554C19.171 27.1696 20.7702 26.2904 22.0298 25.0216Z" fill="#244A9A"/>
<path d="M3.95459 7.94531H7.9324V11.9181H3.95459C3.95459 10.5474 3.95459 9.26958 3.95459 7.94531Z" fill="#00CCAA"/>
<path d="M32.73 12.2898C33.7104 12.0391 34.7188 11.9141 35.7309 11.9181C35.7309 13.2423 35.7309 14.5433 35.7309 15.8676C34.4792 15.8443 33.2444 16.1577 32.1557 16.775C31.0671 17.3922 30.1647 18.2905 29.5431 19.3758C28.9766 20.2673 28.5086 21.2177 28.1474 22.2102C27.845 22.9768 27.6589 23.7668 27.3333 24.5334C26.597 26.2057 25.4631 27.6731 24.03 28.8083C22.115 30.3412 19.8122 31.3142 17.3771 31.6194C18.3186 31.4485 19.2092 31.0672 19.9824 30.5042C21.106 29.6051 21.9858 28.4389 22.5413 27.1123C23.2671 25.2895 23.8656 23.4186 24.3324 21.5132C24.5651 20.7465 24.7744 19.9566 25.0536 19.1899C25.4262 18.1591 25.9347 17.1825 26.5656 16.2858C27.0767 15.5822 27.679 14.9494 28.3568 14.404C29.6492 13.3996 31.1395 12.6792 32.73 12.2898Z" fill="#00CCAA"/>
<path d="M3.95459 15.8674H7.9324V19.8402H3.95459C3.95459 18.516 3.95459 17.1917 3.95459 15.8674Z" fill="#00CCAA"/>
<path d="M3.95507 23.7903H7.93288V27.7398C7.9231 28.2623 8.00984 28.7821 8.18876 29.2732C8.3969 29.9044 8.79495 30.4561 9.3286 30.853C10.0118 31.3445 10.8158 31.6416 11.6548 31.7126H7.88636C7.35507 31.7188 6.82786 31.6193 6.33551 31.4198C5.84316 31.2202 5.39554 30.9248 5.01875 30.5506C4.64196 30.1765 4.34355 29.7311 4.14096 29.2406C3.93836 28.75 3.83563 28.224 3.83875 27.6934C3.91629 26.3924 3.95507 25.0913 3.95507 23.7903Z" fill="#00CCAA"/>
<path d="M50.5663 29.5635C50.0832 30.2007 49.4798 30.7354 48.7908 31.1367C48.1017 31.5379 47.3407 31.7979 46.5515 31.9016C45.0129 32.1705 43.4295 31.8842 42.0797 31.093C40.7299 30.3019 39.7002 29.0566 39.1717 27.5761C38.6434 26.3269 38.4264 24.9665 38.5397 23.6135C38.6529 22.2604 39.093 20.9558 39.8215 19.8135C40.7255 18.4381 42.0962 17.4419 43.6768 17.0115C45.2574 16.5811 46.9395 16.746 48.4081 17.4753C49.1513 17.8171 49.8213 18.3016 50.3806 18.9016L50.5199 19.0419C50.5518 18.9431 50.5518 18.8367 50.5199 18.7379C50.5199 16.6102 50.5199 14.5059 50.5199 12.3782C50.5199 12.0509 50.6359 11.9807 50.9144 12.0041H53.2351C53.5136 12.0041 53.6064 12.0041 53.6064 12.3782V31.5509C53.6064 31.8081 53.6064 31.8782 53.2815 31.8782H50.7984C50.5895 31.8782 50.5199 31.8782 50.5431 31.621L50.5663 29.5635ZM41.7013 24.3962C41.6648 25.1996 41.8158 26.0004 42.1422 26.7344C42.4244 27.4211 42.8766 28.0236 43.4556 28.4842C44.0346 28.9448 44.7211 29.2482 45.4496 29.3655C46.1781 29.4827 46.9243 29.4099 47.6169 29.1539C48.3095 28.898 48.9255 28.4675 49.406 27.9034C50.1019 26.9909 50.5038 25.8856 50.5578 24.7362C50.6117 23.5867 50.3151 22.4481 49.7077 21.4736C49.3638 20.9399 48.9074 20.4893 48.3709 20.1538C47.8344 19.8183 47.2311 19.6061 46.6039 19.5324C45.9767 19.4587 45.3411 19.5253 44.7424 19.7275C44.1437 19.9296 43.5966 20.2624 43.1401 20.702C42.6548 21.1803 42.2756 21.7569 42.0276 22.3937C41.7796 23.0304 41.6684 23.713 41.7013 24.3962Z" fill="#244A9A"/>
<path d="M98.2895 27.3133C98.0363 28.1592 97.6091 28.9439 97.0346 29.6177C96.4727 30.2767 95.7853 30.8194 95.0117 31.2148C94.2381 31.6102 93.3935 31.8505 92.5262 31.9221C90.9324 32.1497 89.3067 31.8757 87.8783 31.1386C86.8578 30.6013 85.9879 29.8209 85.347 28.8676C84.7061 27.9143 84.3142 26.818 84.2065 25.6773C83.9542 24.0583 84.1802 22.4015 84.8572 20.9072C85.3279 19.8386 86.0782 18.9141 87.0301 18.2294C87.9821 17.5447 89.1013 17.1247 90.2719 17.0128C91.7021 16.797 93.1644 16.9723 94.5015 17.5198C95.5701 17.9636 96.5021 18.6785 97.2038 19.5927C97.9054 20.5069 98.352 21.5881 98.4987 22.7277C98.615 23.5455 98.615 24.3755 98.4987 25.1933C98.4987 25.5851 98.4987 25.5851 98.0572 25.5851C94.5712 25.5851 91.0853 25.5851 87.5762 25.5851C87.2973 25.5851 87.2276 25.5851 87.2741 25.9538C87.4052 26.9248 87.8923 27.8139 88.6425 28.4514C89.3926 29.089 90.3532 29.4303 91.341 29.4103C92.0365 29.474 92.7354 29.3303 93.3481 28.9978C93.9608 28.6653 94.4595 28.159 94.7804 27.5438C94.7987 27.4972 94.8306 27.457 94.872 27.4283C94.9133 27.3995 94.9623 27.3836 95.0128 27.3825L98.2895 27.3133ZM91.4339 23.0733H95.2219C95.4776 23.0733 95.5241 23.0733 95.5008 22.7968C95.4591 22.3502 95.3412 21.9138 95.1522 21.5063C94.7335 20.7484 94.0816 20.1429 93.2915 19.7782C92.5014 19.4134 91.6145 19.3084 90.76 19.4785C89.9199 19.6038 89.1429 19.9942 88.5442 20.592C87.9456 21.1897 87.5572 21.9629 87.4367 22.7968C87.4367 23.0042 87.4368 23.0733 87.6691 23.0733H91.4339Z" fill="#00CCAA"/>
<path d="M70.9114 18.5335C71.6726 17.6501 72.708 17.0447 73.8536 16.8131C74.9224 16.5351 76.0468 16.5505 77.1075 16.8575C78.1682 17.1645 79.1256 17.7517 79.8782 18.5567C80.8832 19.6868 81.403 21.1643 81.3259 22.6717C81.3259 25.5313 81.3259 28.4142 81.3259 31.2971C81.3259 31.5295 81.326 31.576 81.0224 31.576H78.6873C78.4538 31.576 78.3837 31.5761 78.3837 31.2738C78.3837 28.6467 78.3837 26.0196 78.3837 23.3692C78.4194 22.6428 78.2834 21.9182 77.9868 21.2536C77.7431 20.6877 77.3399 20.2043 76.826 19.8618C76.3121 19.5194 75.7095 19.3325 75.0912 19.3239C74.5694 19.2508 74.0379 19.2919 73.5337 19.4445C73.0296 19.5971 72.565 19.8574 72.1724 20.2074C71.5621 20.7768 71.1734 21.5426 71.0749 22.3695C71.0392 22.7329 71.0392 23.0989 71.0749 23.4622V31.3668C71.0749 31.6225 71.0749 31.6923 70.7479 31.6923H68.4128C68.1793 31.6923 68.0859 31.6923 68.0859 31.39V17.278C68.0859 17.092 68.086 16.9991 68.3662 16.9991H70.9348C71.0982 16.9991 71.1683 16.999 71.1683 17.2548L70.9114 18.5335Z" fill="#00CCAA"/>
<path d="M112.758 16.9231L111.814 18.3879C110.618 20.2247 109.513 22.0615 108.225 23.8982C108.159 23.9712 108.122 24.0666 108.122 24.1656C108.122 24.2647 108.159 24.3601 108.225 24.433L112.574 31.4082L112.735 31.6872H109.675C109.563 31.703 109.449 31.6821 109.349 31.6278C109.25 31.5734 109.17 31.4883 109.122 31.3849C108.179 29.8504 107.19 28.3158 106.223 26.7348C106.085 26.7348 106.062 26.9208 105.993 27.0138L103.439 31.3849C103.397 31.4642 103.334 31.53 103.257 31.5751C103.179 31.6202 103.091 31.6429 103.002 31.6407H100.448C100.448 31.6407 100.264 31.6407 100.149 31.6407L100.794 30.6642L104.636 24.7353C104.699 24.6701 104.734 24.5824 104.734 24.4911C104.734 24.3999 104.699 24.3122 104.636 24.247C103.163 21.9219 101.737 19.5969 100.287 17.2718L100.126 17.0161C100.241 17.0161 100.356 17.0161 100.448 17.0161H103.209C103.305 17.0115 103.399 17.0355 103.481 17.0851C103.563 17.1348 103.629 17.2079 103.67 17.2951L106.43 21.6662L106.615 21.9452C106.615 21.9452 106.753 21.7824 106.799 21.7127C107.696 20.2247 108.57 18.7366 109.444 17.2486C109.444 17.1091 109.606 17.0161 109.79 17.0161L112.758 16.9231Z" fill="#00CCAA"/>
<path d="M115.405 23.955V19.9131C115.405 19.7052 115.405 19.6359 115.129 19.6359H113.911C113.751 19.6359 113.682 19.6359 113.682 19.428C113.682 18.7351 113.682 18.0653 113.682 17.3724C113.682 17.2108 113.682 17.1646 113.911 17.1646H115.152C115.359 17.1646 115.405 17.1646 115.405 16.9105V13.8156C115.405 13.6077 115.405 13.5385 115.658 13.5385H118.185C118.415 13.5385 118.461 13.5384 118.461 13.8156C118.461 14.8318 118.461 15.8481 118.461 16.8412C118.461 17.0953 118.461 17.1646 118.783 17.1646H121.701C121.931 17.1646 122 17.1646 122 17.4648C122 18.0885 122 18.7351 122 19.3587C122 19.5897 122 19.659 121.724 19.659H118.783C118.507 19.659 118.461 19.659 118.461 20.0054C118.461 22.5692 118.461 25.1098 118.461 27.6735C118.461 28.7821 118.921 29.244 120.024 29.244H121.77C121.954 29.244 122 29.244 122 29.4981V31.4613C122 31.4613 122 31.6923 121.816 31.6923C120.736 31.6923 119.656 31.6923 118.599 31.6923C118.004 31.6637 117.429 31.4722 116.935 31.1383C116.44 30.8045 116.047 30.3411 115.796 29.7984C115.524 29.1488 115.398 28.4468 115.428 27.7428L115.405 23.955Z" fill="#00CCAA"/>
<path d="M60.7433 22.7023C60.7573 22.0406 60.9933 21.4037 61.4122 20.897C61.8311 20.3903 62.4078 20.0443 63.0467 19.9164C63.6079 19.8058 64.1805 19.7665 64.7512 19.7993C64.9355 19.7993 65.0046 19.7993 65.0046 19.5418C65.0046 18.6521 65.0046 17.7625 65.0046 16.8729C65.0046 16.6856 65.0046 16.6154 64.7512 16.6154C63.726 16.637 62.7309 16.9714 61.895 17.5752C61.4188 17.9382 60.9994 18.3723 60.6511 18.8629C60.6511 18.2776 60.6511 17.6923 60.6511 17.107C60.6511 16.9197 60.6511 16.8495 60.3978 16.8495H57.864C57.6567 16.8495 57.6107 16.8495 57.6107 17.1304V31.4348C57.6107 31.6455 57.6107 31.6923 57.864 31.6923H60.3287C60.6051 31.6923 60.6511 31.6923 60.6511 31.3645L60.7433 22.7023Z" fill="#244A9A"/>
</svg>
