<?xml version="1.0" encoding="UTF-8"?>
<svg xmlns="http://www.w3.org/2000/svg" version="1.1" viewBox="0 0 100 100">
  <defs>
    <style>
      .cls-1 {
        stroke-width: 1.74px;
      }

      .cls-1, .cls-2, .cls-3, .cls-4 {
        fill: none;
        stroke: #fff;
      }

      .cls-1, .cls-3 {
        stroke-linejoin: round;
      }

      .cls-1, .cls-3, .cls-4 {
        stroke-linecap: round;
      }

      .cls-2 {
        stroke-width: .87px;
      }

      .cls-2, .cls-4 {
        stroke-miterlimit: 10;
      }

      .cls-3, .cls-4 {
        stroke-width: 1.16px;
      }
    </style>
  </defs>
  <!-- Generator: Adobe Illustrator 28.7.1, SVG Export Plug-In . SVG Version: 1.2.0 Build 142)  -->
  <g>
    <g id="Layer_1">
      <g>
        <circle class="cls-2" cx="50" cy="50" r="31.06"/>
        <path class="cls-1" d="M61.54,52.29c.08-3.41-1.02-6.85-3.33-9.67l-10.44-12.79c-.52-.63-1.47-.63-1.99,0l-10.44,12.79c-4.8,5.87-4.38,14.43,1,19.8,2.88,2.88,6.67,4.32,10.44,4.32,1.28,0,2.55-.17,3.8-.49"/>
        <polygon class="cls-3" points="54.22 58.7 54.22 66.01 60.55 69.66 66.88 66.01 66.88 58.7 60.55 55.05 54.22 58.7"/>
        <polyline class="cls-4" points="56.71 60.14 60.55 62.35 60.55 67.48"/>
        <line class="cls-4" x1="64.84" y1="59.88" x2="60.74" y2="62.24"/>
        <path class="cls-1" d="M34.94,54c.52,2.19,1.63,4.26,3.34,5.97,2.28,2.28,5.28,3.56,8.5,3.64"/>
      </g>
    </g>
  </g>
</svg>