<?xml version="1.0" encoding="UTF-8"?>
<svg xmlns="http://www.w3.org/2000/svg" version="1.1" viewBox="0 0 100 100">
  <defs>
    <style>
      .cls-1 {
        fill: none;
        stroke: #fff;
        stroke-miterlimit: 10;
        stroke-width: .87px;
      }

      .cls-2 {
        fill: #fff;
      }
    </style>
  </defs>
  <!-- Generator: Adobe Illustrator 28.7.1, SVG Export Plug-In . SVG Version: 1.2.0 Build 142)  -->
  <g>
    <g id="Layer_1">
      <g>
        <circle class="cls-1" cx="50" cy="50" r="31.06"/>
        <g>
          <g>
            <path class="cls-2" d="M57.52,29.56c-.06-2.16-1.63-3.79-3.76-3.86-2.5-.08-5.01-.09-7.52,0-2.24.09-3.75,1.73-3.78,3.99-.04,2.29-.04,4.59,0,6.88.04,2.5,1.61,4.03,4.16,4.09,1.1.02,2.19,0,3.29,0h0c1.2,0,2.4.03,3.6,0,2.35-.07,3.96-1.6,4.02-3.92.06-2.4.07-4.8,0-7.2ZM56.59,36.59c-.04,1.96-1.2,3.1-3.14,3.16-1.2.04-2.41,0-3.61,0,0,0,0,0,0,0-1.15,0-2.3.04-3.45,0-1.78-.07-2.94-1.2-2.98-2.97-.05-2.4-.05-4.81,0-7.21.04-1.69,1.17-2.86,2.87-2.91,2.46-.07,4.92-.08,7.37,0,1.76.06,2.88,1.26,2.92,3.05.06,2.3.06,4.6.01,6.89Z"/>
            <path class="cls-2" d="M53.81,29.44c-.59-.4-1.07-.05-1.44.48-.72,1.02-1.46,2.03-2.2,3.05q-1.12,1.55-2.22-.05c-.35-.5-.59-1.14-1.29-1.16-.8.02-1.2.74-.76,1.47.7,1.16,1.47,2.28,2.27,3.37.57.78,1.24.69,1.78-.07,1.32-1.81,2.61-3.65,3.93-5.46.42-.58.6-1.17-.07-1.63Z"/>
          </g>
          <g>
            <path class="cls-2" d="M57.52,46.59c-.06-2.16-1.63-3.79-3.76-3.86-2.5-.08-5.01-.09-7.52,0-2.24.09-3.75,1.73-3.78,3.99-.04,2.29-.04,4.59,0,6.88.04,2.5,1.61,4.03,4.16,4.09,1.1.02,2.19,0,3.29,0h0c1.2,0,2.4.03,3.6,0,2.35-.07,3.96-1.6,4.02-3.92.06-2.4.07-4.8,0-7.2ZM56.59,53.62c-.04,1.96-1.2,3.1-3.14,3.16-1.2.04-2.41,0-3.61,0,0,0,0,0,0,0-1.15,0-2.3.04-3.45,0-1.78-.07-2.94-1.2-2.98-2.97-.05-2.4-.05-4.81,0-7.21.04-1.69,1.17-2.86,2.87-2.91,2.46-.07,4.92-.08,7.37,0,1.76.06,2.88,1.26,2.92,3.05.06,2.3.06,4.6.01,6.89Z"/>
            <path class="cls-2" d="M53.81,46.47c-.59-.4-1.07-.05-1.44.48-.72,1.02-1.46,2.03-2.2,3.05q-1.12,1.55-2.22-.05c-.35-.5-.59-1.14-1.29-1.16-.8.02-1.2.74-.76,1.47.7,1.16,1.47,2.28,2.27,3.37.57.78,1.24.69,1.78-.07,1.32-1.81,2.61-3.65,3.93-5.46.42-.58.6-1.17-.07-1.63Z"/>
          </g>
          <g>
            <path class="cls-2" d="M57.52,63.23c-.06-2.16-1.63-3.79-3.76-3.86-2.5-.08-5.01-.09-7.52,0-2.24.09-3.75,1.73-3.78,3.99-.04,2.29-.04,4.59,0,6.88.04,2.5,1.61,4.03,4.16,4.09,1.1.02,2.19,0,3.29,0h0c1.2,0,2.4.03,3.6,0,2.35-.07,3.96-1.6,4.02-3.92.06-2.4.07-4.8,0-7.2ZM56.59,70.25c-.04,1.96-1.2,3.1-3.14,3.16-1.2.04-2.41,0-3.61,0,0,0,0,0,0,0-1.15,0-2.3.04-3.45,0-1.78-.07-2.94-1.2-2.98-2.97-.05-2.4-.05-4.81,0-7.21.04-1.69,1.17-2.86,2.87-2.91,2.46-.07,4.92-.08,7.37,0,1.76.06,2.88,1.26,2.92,3.05.06,2.3.06,4.6.01,6.89Z"/>
            <path class="cls-2" d="M53.81,63.1c-.59-.4-1.07-.05-1.44.48-.72,1.02-1.46,2.03-2.2,3.05q-1.12,1.55-2.22-.05c-.35-.5-.59-1.14-1.29-1.16-.8.02-1.2.74-.76,1.47.7,1.16,1.47,2.28,2.27,3.37.57.78,1.24.69,1.78-.07,1.32-1.81,2.61-3.65,3.93-5.46.42-.58.6-1.17-.07-1.63Z"/>
          </g>
        </g>
      </g>
    </g>
  </g>
</svg>