<?xml version="1.0" encoding="UTF-8"?>
<svg xmlns="http://www.w3.org/2000/svg" version="1.1" viewBox="0 0 100 100">
  <defs>
    <style>
      .cls-1 {
        fill: none;
        stroke: #fff;
        stroke-miterlimit: 10;
        stroke-width: .87px;
      }

      .cls-2 {
        fill: #fff;
      }
    </style>
  </defs>
  <!-- Generator: Adobe Illustrator 28.7.1, SVG Export Plug-In . SVG Version: 1.2.0 Build 142)  -->
  <g>
    <g id="Layer_1">
      <g>
        <circle class="cls-1" cx="50" cy="50" r="31.06"/>
        <g>
          <path class="cls-2" d="M47.91,57.59c-.63,2.56-2.17,4.27-4.8,4.71-2.56.43-4.49-.76-6.06-2.72-5.17-6.47-5.06-16.82.28-23.1,2.36-2.77,5.95-3.27,8.47-1.18,2.64,2.19,2.82,5.78.45,8.63-.36.43-.66.92-.89,1.44-.51,1.17-1.01,2.19,1.03,2.57,1.95.36,3.1,2.12,3.11,4.18.04,4.73.02,9.45,0,14.18,0,.47.2,1.2-.55,1.2-.79,0-.49-.77-.5-1.2-.05-2.9-.05-5.81-.07-8.71.02-1.75.07-3.51.06-5.26-.01-1.48-.69-2.61-2.04-3.26-.4-.19-.89-.5-1.29-.24-.56.37-.11.92-.03,1.39.13.8.45,1.54,1.02,2.1,1.51,1.46,1.95,3.26,1.8,5.27ZM44.26,45.06c.39-1.01,1.09-1.7,1.65-2.48,1.22-1.7,1.22-3.74.06-5.42-1.16-1.68-3.07-2.35-5.11-1.81-1.54.41-2.5,1.53-3.36,2.74-2.94,4.14-3.67,8.76-2.8,13.67.55,3.1,1.88,5.86,4.12,8.1,1.87,1.87,4.59,1.9,6.48.2,1.85-1.68,2.03-4.42.43-6.48-.55-.7-1.06-1.43-1.59-2.16-.76.19-.9,1.93-1.86,1.16-.75-.61.52-1.27.82-1.93.79-1.73.73-1.9-1.11-1.91-.68,0-1.37,0-2.05,0-.41,0-.9-.04-.89-.55.01-.49.49-.54.91-.54,1.21,0,2.43,0,3.87,0-.39-.92-.69-1.53-.9-2.16-.2-.59-1.38-1.07-.67-1.66.87-.72,1.06.61,1.59.98.09.06.19.12.41.25Z"/>
          <path class="cls-2" d="M51.66,58.3c-.02,2.67-.03,5.35-.07,8.02,0,.46.23,1.2-.56,1.18-.77-.03-.49-.78-.5-1.22-.02-4.72-.03-9.45,0-14.17.01-2.22,1.33-3.93,3.58-4.34,1.13-.21,1.05-.68.88-1.45-.22-.96-.71-1.77-1.35-2.53-2.21-2.62-2.05-6.08.34-8.25,2.43-2.19,5.82-2,8.25.47,6,6.1,6.01,18.19.07,24.4-2.81,2.94-8.06,2.89-10.07-2.13-.39-2.31.05-4.33,1.76-6.08.8-.81,1.18-1.95,1.07-3.12-.04-.45-.52-.31-.84-.22-1.37.39-2.24,1.26-2.55,2.67-.05.22-.07.45-.07.68.01,2.04.03,4.07.05,6.11ZM55.8,51.29c-.36.87-.95,1.62-1.56,2.37-1.23,1.51-1.39,3.22-.58,4.96,1.56,3.37,5.77,3.61,8.28.48,3.17-3.95,4.21-8.52,3.55-13.46-.47-3.57-1.83-6.82-4.56-9.29-1.89-1.71-4.58-1.59-6.33.11-1.72,1.66-1.9,4.43-.35,6.35.6.74,1.15,1.5,1.63,2.39.25-.32.43-.61.67-.85.32-.33.56-1.04,1.18-.54.53.43-.04.8-.26,1.15-.52.81-1.11,1.58-1.01,2.72,1.16,0,2.29,0,3.42,0,.43,0,1.05-.13,1.02.55-.03.65-.64.5-1.07.51-.57.02-1.14.01-1.71.01-1.98,0-2.02.15-1.21,1.94.29.64,1.63,1.29.77,1.91-.91.65-1.11-.95-1.89-1.3Z"/>
          <path class="cls-2" d="M56.29,39.32c.61.04,1.05.35,1.05,1.03,0,.67-.45,1.05-1.07,1.04-.54,0-.94-.33-.97-.95-.04-.68.28-1.05,1-1.12Z"/>
          <path class="cls-2" d="M59.41,37.21c.63.07,1.07.39,1.07,1.05,0,.67-.44,1.04-1.09,1.02-.56-.02-.96-.33-.98-.94-.03-.68.34-1.03,1-1.13Z"/>
          <path class="cls-2" d="M59.44,51.84c-.64-.03-1.04-.34-1.02-1.04.02-.69.44-1.04,1.08-1.01.55.02.95.35.97.96.02.66-.32,1.05-1.03,1.09Z"/>
          <path class="cls-2" d="M59.98,40.85c.69.06,1.04.52,1.03,1.13,0,.53-.34.93-.96.96-.7.03-1.09-.38-1.11-1-.03-.64.38-1.03,1.05-1.09Z"/>
          <path class="cls-2" d="M60.49,45.54c-.06.63-.36,1.08-1.03,1.08-.64,0-1.06-.34-1.04-1.05.02-.59.33-.97.92-1.01.65-.04,1.06.28,1.16.97Z"/>
          <path class="cls-2" d="M60.5,58.1c-.08.78-.5,1.13-1.13,1.09-.53-.03-.96-.33-.95-.97,0-.67.32-1.07,1.01-1.08.68,0,1,.4,1.07.95Z"/>
          <path class="cls-2" d="M64.16,44.06c-.14.66-.5,1.01-1.18.95-.6-.06-.91-.4-.89-.99.03-.64.35-1.08,1.03-1.03.62.05,1.01.43,1.03,1.07Z"/>
          <path class="cls-2" d="M60.99,54.55c-.11.62-.43,1.01-1.12.98-.62-.03-.93-.47-.93-.99,0-.61.36-1.09,1.03-1.08.66,0,1,.42,1.02,1.1Z"/>
          <path class="cls-2" d="M56.29,55.03c.69.12,1.14.46,1.04,1.13-.09.61-.51,1.03-1.17.94-.54-.07-.89-.45-.88-1.05.01-.69.43-.97,1-1.02Z"/>
          <path class="cls-2" d="M64.63,48.07c.01.81-.41,1.18-1.02,1.18-.63,0-1.04-.39-1.02-1.07.01-.6.37-.93.94-.96.65-.04,1.05.29,1.1.86Z"/>
          <path class="cls-2" d="M63.09,53.46c-.65-.09-1.02-.44-.99-1.11.03-.59.34-.93.95-.96.69-.03,1.08.38,1.11,1,.03.65-.44.98-1.07,1.08Z"/>
        </g>
      </g>
    </g>
  </g>
</svg>