<?xml version="1.0" encoding="UTF-8"?>
<svg xmlns="http://www.w3.org/2000/svg" version="1.1" viewBox="0 0 60 60">
  <defs>
    <style>
      .cls-1 {
        fill: #1d75bc;
      }
    </style>
  </defs>
  <!-- Generator: Adobe Illustrator 28.7.1, SVG Export Plug-In . SVG Version: 1.2.0 Build 142)  -->
  <g>
    <g id="Layer_1">
      <g>
        <path class="cls-1" d="M9.8,45.39c-.46,0-.7-.05-.82-.17-.12-.12-.17-.38-.17-.84,0-6.13,0-12.26,0-18.4,0-.85.13-.98.97-.98,5.38,0,10.76,0,16.14,0s11.12,0,16.68,0c.43,0,.68.05.8.17.12.12.17.37.17.81,0,6.13,0,12.26,0,18.4,0,.87-.14,1.01-1.01,1.01-2.75,0-16.38,0-16.38,0h-8.15c-2.74,0-5.49,0-8.23,0ZM10.88,26.21c-.23,0-.48.02-.65.2-.17.17-.2.42-.2.67.02,5.58.02,11.04,0,16.21,0,.25.02.51.2.69.18.18.44.2.67.2h.01c3.06-.01,6.04-.01,8.54-.01,1.11,0,2.22,0,3.33,0,1.11,0,2.22,0,3.33,0s2.15,0,3.23,0c1.08,0,2.15,0,3.23,0,2.63,0,5.74,0,8.91.01h0c.22,0,.46-.02.63-.19.17-.17.19-.42.19-.64-.01-5.58-.01-11.05,0-16.27,0-.23-.02-.49-.2-.66-.18-.18-.43-.2-.66-.2-5.08,0-10.2,0-15.22,0s-10.3,0-15.37-.01h0Z"/>
        <path class="cls-1" d="M45.33,40.25c-.83,0-.85-.36-.86-.54-.02-.3.05-.61.72-.7.48-.06.74-.1.9-.3.17-.21.14-.48.1-.94-.33-3.17-.68-6.4-1.01-9.52-.18-1.73-.37-3.47-.55-5.21-.01-.11-.03-.22-.04-.32-.04-.3-.07-.58-.06-.86,0-.17,0-.41-.17-.58-.17-.17-.4-.17-.48-.17-.07,0-.14,0-.24.02-1.91.21-3.86.42-5.75.61l-.81.08c-1.67.17-3.34.35-5.01.52-2.86.3-5.82.6-8.72.91-2.09.22-4.21.45-6.27.68l-1.51.17c-.06,0-.11,0-.17,0-.25,0-.68-.07-.74-.54-.02-.17.01-.32.1-.43.12-.15.32-.24.59-.27,1.69-.18,3.41-.36,5.08-.54,1.07-.11,2.14-.22,3.2-.34,1.63-.17,3.26-.35,4.88-.52,2.08-.22,4.23-.45,6.34-.67,1.56-.16,3.14-.33,4.67-.48,1.09-.11,2.19-.22,3.28-.34.27-.03.54-.06.8-.09.37-.05.76-.09,1.14-.12.05,0,.09,0,.14,0,.46,0,.67.21.72.73l.32,3.08c.5,4.78.99,9.55,1.49,14.32.03.27.07.55.1.82.02.17.05.35.07.52.06.51-.12.76-.61.84-.4.07-.82.11-1.15.15-.12.01-.24.03-.34.04-.06,0-.11,0-.17,0Z"/>
        <path class="cls-1" d="M49.16,34.94c-.33,0-.56-.18-.62-.48-.04-.18,0-.35.08-.48.09-.13.24-.21.43-.24.2-.03.46-.09.6-.3.15-.21.12-.47.07-.71-.64-3.24-1.27-6.55-1.88-9.74-.22-1.14-.44-2.27-.65-3.41-.06-.3-.12-.59-.18-.88-.13-.6-.26-1.22-.34-1.84-.04-.34-.17-.8-.73-.8-.11,0-.22.01-.39.05-1.51.31-3.06.6-4.55.89-.55.1-1.09.21-1.64.31-4.07.78-8.15,1.56-12.22,2.34-.74.14-1.47.28-2.21.42-2.15.41-4.37.84-6.56,1.25-.09.02-.18.03-.27.03-.26,0-.59-.09-.67-.49-.03-.15,0-.28.08-.4.12-.18.35-.31.65-.37,1.96-.37,3.93-.75,5.89-1.12,3.43-.65,6.86-1.31,10.28-1.96,2.6-.5,5.19-1,7.79-1.49,1.48-.28,2.95-.57,4.43-.85.1-.02.21-.04.29-.05.02,0,.04,0,.05,0,.45,0,.65.18.75.66.32,1.68.64,3.35.96,5.03.15.81.91,4.75.91,4.75.54,2.85,1.11,5.8,1.66,8.7.11.59-.02.8-.6.93-.37.08-.81.18-1.24.25-.06,0-.11.01-.17.01Z"/>
        <path class="cls-1" d="M26.39,42.69c-3.64,0-7.28,0-10.92,0-.68,0-.78-.09-.89-.78-.18-1.15-.84-1.77-2.03-1.91-.48-.06-.65-.22-.65-.66-.01-2.63-.01-5.42,0-8.27,0-.45.16-.62.63-.68,1.21-.13,1.88-.77,2.05-1.95.1-.65.2-.73.87-.73,1.69,0,3.39,0,5.09,0h11.52c1.58,0,3.17,0,4.75,0,.81,0,.87.06.99.85.15,1.02.88,1.72,1.92,1.83.59.06.74.23.75.8,0,2.54,0,5.16,0,7.99,0,.6-.15.76-.78.83-1.02.11-1.77.84-1.9,1.86-.09.71-.22.83-.91.83-3.5,0-7,0-10.49,0ZM16.38,28.92c-.41,0-.64.16-.78.54-.34.92-.97,1.57-1.89,1.92-.41.16-.59.42-.59.87.01,1.93.01,3.91,0,5.87,0,.45.17.72.58.87.92.35,1.55.98,1.86,1.86.16.44.42.61.9.61h.01c1.92,0,3.85,0,5.32,0,.73,0,1.45,0,2.18,0,.73,0,1.45,0,2.18,0h3.87c1.97,0,3.94,0,5.92,0h.09c.18,0,.57,0,.73-.49.31-.96.97-1.63,1.94-1.99.48-.18.54-.51.54-.84-.01-2.29-.01-4.17,0-5.93,0-.43-.16-.67-.56-.82-.95-.37-1.59-1.03-1.92-1.96-.12-.35-.35-.51-.74-.51-3.28,0-6.59,0-9.83,0s-6.57,0-9.8,0h0Z"/>
        <path class="cls-1" d="M26.19,39.85c-1.24,0-2.41-.48-3.29-1.36-.88-.87-1.37-2.04-1.37-3.29,0-1.24.48-2.42,1.36-3.31.88-.89,2.05-1.38,3.28-1.38h.01c1.23,0,2.39.49,3.28,1.38.89.89,1.38,2.06,1.38,3.3,0,1.22-.48,2.38-1.37,3.27-.88.89-2.04,1.38-3.26,1.39h-.02ZM26.16,31.77c-1.89.01-3.38,1.52-3.37,3.43,0,1.9,1.49,3.39,3.39,3.39,1.91,0,3.42-1.49,3.43-3.38,0-.91-.35-1.77-1-2.43-.65-.65-1.51-1.01-2.42-1.01h-.02Z"/>
      </g>
    </g>
  </g>
</svg>