<?xml version="1.0" encoding="UTF-8"?>
<svg xmlns="http://www.w3.org/2000/svg" version="1.1" viewBox="0 0 100 100">
  <defs>
    <style>
      .cls-1 {
        fill: none;
        stroke: #fff;
        stroke-miterlimit: 10;
        stroke-width: .87px;
      }

      .cls-2 {
        fill: #fff;
      }
    </style>
  </defs>
  <!-- Generator: Adobe Illustrator 28.7.1, SVG Export Plug-In . SVG Version: 1.2.0 Build 142)  -->
  <g>
    <g id="Layer_1">
      <g>
        <circle class="cls-1" cx="50" cy="50" r="31.06"/>
        <g>
          <path class="cls-2" d="M56.4,45.56c2.17,0,4.19,0,6.2,0,.93,0,1.31.38,1.31,1.29,0,.56,0,1.11,0,1.67,0,.52-.2.93-.73,1.12-.16.06-.22.12-.23.3-.05,1.01.1,1.97.65,2.83.6.94.87,1.97.87,3.07,0,.29.03.49.32.66.32.19.43.53.43.91,0,1.37,0,2.74,0,4.1,0,.41-.17.76-.52.96-.21.12-.23.27-.22.47,0,.52.01,1.05,0,1.57-.02,1.17-.72,1.86-1.89,1.86-2.77,0-5.53,0-8.3,0-1.13,0-1.85-.71-1.87-1.84,0-.35,0-.7,0-1.05,0-.46.1-.93-.45-1.23-.26-.14-.27-.49-.27-.78,0-1.35,0-2.7,0-4.05,0-.35.07-.7.38-.88.3-.19.35-.42.35-.74,0-1.09.28-2.1.87-3.03.55-.87.69-1.83.65-2.83,0-.13,0-.24-.18-.28-.35-.09-.57-.34-.79-.82-.16.23-.24.41-.37.54-3.54,3.55-7.08,7.09-10.62,10.63-.74.74-1.03.8-1.96.32-.18-.09-.27,0-.38.07-.53.28-1.07.56-1.59.86-.39.22-.78.29-1.16,0-.24-.19-.31.05-.41.15-1.39,1.38-2.77,2.76-4.15,4.14-.2.2-.4.4-.61.61-.26.26-.55.35-.83.07-.28-.28-.18-.57.08-.83,1.34-1.34,2.67-2.67,4.01-4.01.18-.18.35-.37.54-.54.27-.24.52-.45.21-.87-.16-.22-.06-.55.08-.82.2-.36.38-.73.59-1.09.26-.44.52-.83.16-1.4-.26-.41-.08-.9.27-1.26.93-.94,1.86-1.87,2.79-2.8.26-.26.55-.36.83-.08.3.3.18.6-.1.87-.85.84-1.67,1.7-2.54,2.52-.31.3-.28.48.01.76.9.87,1.79,1.76,2.66,2.66.25.26.41.24.65,0,.82-.82.83-.82.02-1.63-.1-.1-.21-.2-.29-.31-.17-.26-.16-.52.08-.73.22-.19.48-.18.69.01.29.27.58.55.85.84.16.17.28.23.45.01.08-.11.2-.2.3-.31.2-.2.51-.38.57-.62.07-.28-.33-.41-.5-.63-.21-.27-.24-.53,0-.77.24-.23.51-.2.77.02.63.53.63.52,1.22-.07q.54-.54,0-1.09c-.17-.17-.34-.34-.5-.51-.22-.23-.23-.49-.01-.72.23-.25.51-.25.76-.03.28.26.55.53.81.81.17.19.3.22.49.01.28-.32.81-.6.84-.93.03-.34-.52-.63-.81-.93-.72-.74-1.47-1.45-2.19-2.2-.2-.21-.31-.22-.52,0-.58.61-1.18,1.2-1.78,1.79-.36.35-.67.41-.9.14-.3-.35-.13-.63.14-.91,3.89-3.89,7.78-7.78,11.68-11.66.32-.31.29-.47-.01-.76-1.12-1.08-1.11-1.27-.02-2.36.13-.13.27-.27.41-.4.48-.44.91-.45,1.38,0,.4.38.8.78,1.18,1.18.15.16.23.14.38,0,1.19-1.2,2.38-2.39,3.57-3.57.18-.18.13-.28-.02-.42-.18-.17-.38-.34-.49-.58-.16-.38-.09-.72.19-1.01.32-.33.64-.66.98-.98.41-.38.88-.39,1.28,0,1.66,1.64,3.31,3.29,4.95,4.96.37.38.36.85,0,1.24-.29.32-.6.62-.91.91-.52.5-.99.52-1.48-.03-.33-.37-.51-.34-.84,0-1.08,1.13-2.19,2.22-3.29,3.31-.19.18-.22.29-.01.48.39.35.75.73,1.12,1.11.47.49.48.93.01,1.42-.29.31-.6.62-.91.91-.43.4-.89.39-1.32,0-.01-.01-.02-.02-.03-.03-.31-.26-.55-.81-.9-.76-.33.04-.6.52-.89.81-.39.38-.77.75-1.25,1.23ZM58.45,57.32c-1.77,0-3.53,0-5.3,0-.31,0-.41.07-.4.39.02,1.18.02,2.35,0,3.53,0,.29.07.38.37.37,1.21-.02,2.42,0,3.63,0,.72,0,1.43,0,2.15,0,.34,0,.54.21.54.54,0,.31-.21.49-.52.51-.13.01-.25,0-.38,0-1.54,0-3.08,0-4.63,0-.29,0-.43.05-.41.38.03.51,0,1.02.01,1.53.01.48.26.74.74.74,2.8,0,5.6,0,8.4,0,.48,0,.74-.26.75-.73.02-.54,0-1.08,0-1.62,0-.23-.07-.3-.3-.3-.52.01-1.05,0-1.57,0-.37,0-.64-.13-.64-.53,0-.41.27-.53.64-.53.75,0,1.5-.01,2.24,0,.29,0,.38-.07.37-.37-.02-1.18-.02-2.35,0-3.53,0-.32-.09-.4-.4-.4-1.76.01-3.53,0-5.3,0ZM51.19,45.37c.26,0,.42.14.5.34.09.23.03.43-.15.61-.71.71-1.41,1.42-2.12,2.12-.17.17-.21.27,0,.44.31.27.6.57.87.88.18.19.28.15.45-.02.64-.66,1.29-1.32,1.96-1.95.21-.21.3-.41.29-.71-.01-1.2.3-1.51,1.52-1.5.28,0,.47-.07.67-.27.58-.61,1.19-1.19,1.78-1.79.27-.28.78-.54.75-.85-.03-.31-.49-.58-.77-.86-.43-.44-.43-.43-.87,0-.88.88-1.75,1.75-2.63,2.63-.18.18-.37.3-.64.21-.2-.07-.31-.21-.35-.41-.05-.27.12-.44.29-.62.92-.92,1.83-1.85,2.77-2.76.22-.21.21-.32,0-.51-.29-.25-.56-.52-.81-.81-.18-.2-.29-.2-.48,0-2.27,2.29-4.55,4.57-6.84,6.84-.17.17-.21.27-.01.44.31.27.6.56.88.87.18.2.28.16.44-.01.66-.68,1.34-1.35,2.02-2.02.15-.14.29-.31.5-.28ZM58.42,56.24h3.77c1.38,0,1.39-.04,1.11-1.43-.16-.79-.64-1.41-.94-2.12-.11-.26-.24-.34-.52-.34-1.99.01-3.97.04-5.96-.01-.79-.02-1.31.09-1.67.93-.36.84-.72,1.64-.72,2.58,0,.31.08.41.4.4,1.51-.02,3.02,0,4.53,0ZM58.46,46.63c-.92,0-1.84,0-2.76,0-.52,0-1.22-.18-1.52.08-.33.3-.06,1.01-.11,1.54-.03.32.09.39.4.39.98-.02,1.97-.01,2.96,0,.36,0,.63.16.61.56-.01.38-.28.5-.62.5-.52,0-1.05,0-1.57,0q-.8,0-.82.77c0,.13,0,.26-.03.38-.09.36.04.45.41.45,1.92-.02,3.85,0,5.77,0q.74,0,.71-.76c0-.17-.02-.35,0-.52.02-.26-.1-.32-.33-.31-.44.02-.89,0-1.33,0-.37,0-.68-.06-.72-.5-.03-.36.23-.56.72-.56.75,0,1.49-.01,2.24,0,.29,0,.43-.05.4-.38-.03-.38-.03-.76,0-1.14.03-.38-.06-.51-.48-.5-1.3.03-2.61.01-3.91.01ZM60.88,42.74c-.12-.13-.21-.24-.3-.33-1.96-1.96-3.92-3.91-5.86-5.88-.27-.27-.42-.27-.66,0-.2.25-.51.37-.1.77,1.97,1.92,3.9,3.88,5.85,5.82.11.11.21.37.4.24.25-.16.44-.4.68-.63ZM49.81,50.64c-.12-.06-.23-.1-.31-.17-.74-.74-1.48-1.48-2.22-2.22-.29-.29-.62-.81-.88-.78-.34.04-.62.53-.94.81-.21.19-.23.3,0,.52.78.75,1.53,1.52,2.29,2.28.27.27.55.72.82.72.28,0,.55-.46.83-.72.11-.11.22-.23.42-.44ZM66.24,35.66c-.14-.16-.2-.25-.28-.32-1.39-1.39-2.8-2.77-4.17-4.18-.42-.43-.51.04-.72.18-.25.17-.31.32-.04.58,1.4,1.37,2.77,2.76,4.15,4.13.1.1.17.33.37.2.24-.17.46-.38.69-.59ZM61.99,34.32c-.18-.16-.36-.29-.5-.46-.22-.27-.36-.29-.63-.01-1.01,1.05-2.06,2.07-3.09,3.1-.6.6-.6.6.04,1.18.18.16.28.13.43-.02,1.17-1.18,2.35-2.36,3.53-3.54.06-.07.12-.14.22-.25ZM63.5,35.83c-.12-.1-.31-.22-.44-.39-.24-.3-.4-.26-.65,0-1.01,1.03-2.03,2.05-3.06,3.07-.59.59-.58.58,0,1.16.19.19.29.19.48,0,1.15-1.17,2.31-2.32,3.46-3.47.08-.08.18-.13.21-.36ZM37.5,60.28s.07,0,.09-.02c.46-.24.92-.49,1.38-.74.18-.09.06-.17-.02-.25-.37-.37-.74-.73-1.1-1.11-.18-.19-.25-.08-.33.08-.18.35-.37.7-.56,1.05-.16.31.2.97.54.99Z"/>
          <path class="cls-2" d="M60.73,58.92c.38,0,.76,0,1.14,0,.33,0,.55.16.56.51.01.37-.2.55-.56.55-.77,0-1.55,0-2.32,0-.35,0-.59-.16-.59-.53,0-.37.24-.53.59-.53.4,0,.79,0,1.19,0Z"/>
          <path class="cls-2" d="M56.17,59.99c-.38,0-.76,0-1.14,0-.36,0-.58-.18-.58-.54,0-.33.22-.51.56-.51.77,0,1.55,0,2.32,0,.36,0,.58.18.58.54,0,.34-.22.51-.56.52-.4,0-.79,0-1.19,0Z"/>
          <path class="cls-2" d="M60.1,64.49c-.34-.03-.53-.24-.51-.56.01-.29.21-.51.52-.5.33,0,.54.21.53.54,0,.33-.2.51-.55.53Z"/>
          <path class="cls-2" d="M55.97,53.08c.36.03.55.21.54.55,0,.31-.2.51-.5.52-.33.01-.54-.19-.55-.52,0-.33.19-.51.5-.55Z"/>
          <path class="cls-2" d="M58.06,54.93c-.01.34-.21.54-.53.55-.32,0-.54-.21-.54-.53,0-.3.19-.5.51-.51.34-.01.52.16.56.5Z"/>
        </g>
      </g>
    </g>
  </g>
</svg>