<?xml version="1.0" encoding="UTF-8"?>
<svg xmlns="http://www.w3.org/2000/svg" version="1.1" viewBox="0 0 100 100">
  <defs>
    <style>
      .cls-1 {
        fill: none;
        stroke: #244a9a;
        stroke-miterlimit: 10;
        stroke-width: .87px;
      }

      .cls-2 {
        fill: #244a9a;
      }
    </style>
  </defs>
  <!-- Generator: Adobe Illustrator 28.7.1, SVG Export Plug-In . SVG Version: 1.2.0 Build 142)  -->
  <g>
    <g id="Layer_1">
      <g>
        <circle class="cls-1" cx="50" cy="50" r="31.06"/>
        <g>
          <path class="cls-2" d="M67.31,54.44c.52-.08,1.04-.18,1.56-.24.95-.1,1.33.21,1.44,1.14.02.12.02.25.03.37q.13,2.14-1.99,2.5c-.11.02-.23.05-.22.05.43.5.86,1.05,1.34,1.56.5.54.55,1.08.15,1.68-.19.28-.38.57-.58.84-.59.8-1.17.88-1.95.22-1.28-1.07-2.69-1.88-4.33-2.24-.57-.13-.85-.08-1.01.62-.63,2.82-2.86,3.81-5.34,4.4-4.24,1-8.55,1.04-12.87.85-2.6-.12-5.21-.29-7.77-.83-.76-.16-1.79-.12-2.05-1.01-.29-1,.7-1.44,1.35-1.91,5.39-3.89,11.18-7.01,17.58-8.92,1.07-.32,2.18-.49,3.3-.53,1.67-.06,3.14.42,4.24,1.72.37.44.65.41,1.08.12,1.21-.81,2.17-1.84,2.89-3.1.62-1.09,1.06-1.2,2.08-.57,1.58.98,1.61,1.09.83,3.11,0,.08,0,.15-.01.23.08-.02.16-.03.25-.05ZM35.12,63.99c2.54.62,4.96.77,7.37.97.41.04.59-.09.45-.53-.07-.21-.12-.42-.14-.63-.02-.31.1-.56.42-.64.35-.08.61.07.72.42.06.21.14.42.16.63.04.6.31.83.94.84,2.18.04,4.35.02,6.51-.18,1.22-.11,1.22-.13,1.1-1.36-.04-.37-.02-.72.41-.81.4-.08.62.15.75.53.15.43,0,1.09.44,1.24.41.14.96-.1,1.44-.2.92-.18,1.8-.48,2.65-.87.81-.37,1.5-.92,1.88-1.74.91-1.93.66-3.81-.44-5.58-1-1.61-2.52-2.08-4.33-1.93-.78.06-1.14.24-.85,1.11.16.47.56,1.22-.22,1.43-.9.23-.82-.71-.89-1.2-.13-.81-.42-.91-1.17-.68-4.36,1.36-8.37,3.43-12.3,5.71-.51.3-.85.56-.59,1.22.12.3.05.65-.3.78-.37.14-.7.02-.8-.39-.08-.33-.23-.43-.51-.23-.88.61-1.81,1.17-2.69,2.07ZM69.19,56.48c.02-1.03-.12-1.17-1.1-.95-.91.2-1.8.45-2.66.83-.35.15-.72.33-1-.09-.3-.45,0-.74.32-1.02.63-.57,1.1-1.25,1.46-2.02.27-.58-.13-.76-.5-1-.44-.29-.52.09-.67.34-.84,1.37-1.96,2.44-3.28,3.36-1.06.74.3,1.57.12,2.4-.06.28-.04.73.49.72.06,0,.12.01.18.02,1.82.29,3.41,1.1,4.86,2.2.21.16.42.68.8.16.29-.39.55-.72.03-1.17-.69-.59-1.36-1.18-2.19-1.55-.3-.13-.56-.28-.54-.66.02-.44.34-.53.68-.63.81-.23,1.63-.38,2.46-.46.34-.03.65-.04.53-.49Z"/>
          <path class="cls-2" d="M41.81,45.69c-.58-2.31-2.11-3.88-4.04-5.12-.26-.17-.54-.31-.81-.47-.33-.18-.57-.43-.37-.82.21-.42.55-.43.95-.22,1.85.97,3.4,2.28,4.51,4.07.13.21.15.68.51.52.34-.15.2-.49.05-.8-.91-1.94-.39-3.72,1.43-4.93,1.7-1.13,3.61-1.44,5.61-1.38.55.01,1,.25.76.85-.49,1.22-.59,2.54-1.08,3.75-.54,1.35-1.35,2.44-2.74,3.01-.42.17-.89.34-1.12-.2-.24-.57.24-.74.66-.91,1.27-.52,1.87-1.58,2.25-2.8.12-.38.21-.78.3-1.17.35-1.5.34-1.51-1.24-1.2-1.08.21-2.11.53-2.98,1.24-.7.58-1.18,1.28-1.09,2.24.02.22,0,.48.22.59.26.13.36-.17.5-.31.25-.23.47-.5.71-.73.29-.28.64-.46.97-.1.33.36.13.69-.16.97-.79.76-1.45,1.62-2,2.56-.12.21-.22.44-.33.67-.13.29-.3.63-.06.87.26.26.58,0,.84-.14,2.48-1.25,4.8-1.02,6.93.77,1.4,1.18,2.21,2.74,2.61,4.51.09.39.08.79-.41.89-.46.1-.67-.19-.76-.61-.37-1.69-1.17-3.14-2.59-4.18-1.47-1.08-3.1-1.36-4.74-.52-1.66.85-3.19.83-4.88.02-2.64-1.28-5.63.19-6.89,3.25-1.1,2.68-.7,5.3.41,7.87.32.74.76,1.42,1.15,2.13.2.36.33.71-.09.97-.35.21-.65.08-.87-.26-2.31-3.69-3.41-7.54-1.42-11.72,1.47-3.07,4.69-4.56,7.55-3.6.53.18,1.04.4,1.55.61.07.02.14.04.2.06,0-.07,0-.15-.01-.22Z"/>
          <path class="cls-2" d="M69.9,47.08c0,1-.13,1.98-.48,2.92-.15.41-.34.79-.86.61-.52-.19-.4-.58-.26-1,.99-3.05.21-5.73-1.74-8.17-.51-.64-.77-.52-1.23.04-2.59,3.17-5.22,6.31-7.84,9.47-.12.14-.24.29-.36.43-.25.29-.56.43-.89.15-.33-.27-.28-.6-.03-.9.39-.48.79-.95,1.19-1.43,2.41-2.92,4.83-5.83,7.24-8.75.92-1.11,1.64-1.12,2.59-.03,1.68,1.91,2.66,4.09,2.67,6.67Z"/>
          <path class="cls-2" d="M63.17,39.31c0,.32-.1.76-.3,1.19-.17.36-.43.55-.82.4-.38-.15-.42-.45-.3-.84.6-2.1-.48-3.22-2.64-2.74-.73.16-.84-.22-.9-.79-.09-.92-.59-1.54-1.5-1.79-.85-.23-1.53.06-2.06.72-.48.6-.61,1.31-.24,2.01.37.71.34,1.13-.58,1.3-.79.15-1.3.73-1.47,1.51-.17.79.07,1.5.73,1.98.67.49.65.9,0,1.37-.28.21-.44.52-.57.83-.16.39-.46.52-.82.37-.36-.14-.45-.53-.27-.78.62-.83.25-1.51-.1-2.32-.59-1.36-.02-2.9,1.27-3.72.4-.25.52-.47.48-.95-.15-1.76.77-3.08,2.38-3.5,1.52-.39,3,.33,3.7,1.9.21.46.46.45.85.47,1.84.07,3.18,1.44,3.16,3.38Z"/>
          <path class="cls-2" d="M62.07,50.63c-1.06-.09-1.99.39-2.3,1.23-.13.35-.34.52-.69.46-.38-.06-.47-.35-.46-.7.03-.89.52-1.54,1.32-1.71,1.65-.36,2.34-1.37,2.56-2.97.14-1,.69-1.86,1.65-2.35,1.31-.67,2.68-.15,3.18,1.23.4,1.11.24,2.2-.14,3.28-.13.37-.4.57-.79.43-.41-.15-.45-.49-.31-.85.26-.69.32-1.39.22-2.1-.06-.45-.24-.84-.72-1-.5-.17-.92.02-1.27.36-.46.45-.67,1.04-.77,1.66-.17,1.03-.44,2-1.35,2.66-.22.16-.39.41,0,.53.53.15.77.43.51.94-.17.33-.57.35-.81.16-.53-.43-.16-.8.16-1.16.02-.02.01-.06.02-.09Z"/>
          <path class="cls-2" d="M56.73,40.27c-.13-.52-.24-.84-.29-1.17-.06-.34-.08-.71.39-.8.4-.08.64.09.75.49.28,1.01.57,2.02.86,3.03.39-.07.4-.4.55-.61.25-.37.47-.82,1-.49.53.33.22.75.01,1.13-.13.24-.27.49-.42.73-.4.64-.78,1.25-.4,2.06.15.31.06.7-.38.8-.4.09-.65-.07-.75-.49-.08-.33-.25-.64-.29-.98-.16-1.44-.84-2.46-2.24-2.96-.41-.15-.84-.44-.57-.97.28-.55.71-.32,1.11-.08.16.09.33.16.66.31Z"/>
          <path class="cls-2" d="M37.88,47.47c.31,0,.56.09.63.41.07.34-.02.64-.4.72-1.08.23-1.78.92-2.31,1.84-.17.3-.42.47-.76.33-.29-.11-.42-.33-.37-.66.17-1.02,2.15-2.66,3.21-2.64Z"/>
          <path class="cls-2" d="M64.3,49.94c-.45,0-.66-.2-.67-.55-.01-.36.23-.58.57-.59.36-.02.58.21.59.56,0,.36-.21.56-.49.58Z"/>
          <path class="cls-2" d="M65.07,47.68c-.37,0-.6-.2-.61-.55-.01-.35.2-.58.56-.6.38-.03.58.19.59.55.01.36-.16.58-.54.6Z"/>
          <path class="cls-2" d="M48.76,60.15c.04.46-.11.71-.48.77-.31.05-.56-.09-.64-.4-.16-.6-.3-1.2-.42-1.81-.07-.34.05-.63.42-.72.36-.08.62.11.71.45.16.6.29,1.21.41,1.72Z"/>
          <path class="cls-2" d="M58.26,60.59c.06.5-.06.77-.42.85-.36.08-.61-.09-.7-.44-.14-.54-.26-1.08-.36-1.62-.06-.32.11-.54.44-.6.3-.06.57.02.67.35.15.53.28,1.07.37,1.47Z"/>
        </g>
      </g>
    </g>
  </g>
</svg>