<?xml version="1.0" encoding="UTF-8"?>
<svg xmlns="http://www.w3.org/2000/svg" version="1.1" viewBox="0 0 60 60">
  <defs>
    <style>
      .cls-1 {
        fill: #1d75bc;
      }
    </style>
  </defs>
  <!-- Generator: Adobe Illustrator 28.7.1, SVG Export Plug-In . SVG Version: 1.2.0 Build 142)  -->
  <g>
    <g id="Layer_1">
      <g>
        <path class="cls-1" d="M35.43,33.82c-.04,1.73.09,3.86-.06,5.98-.23,3.36-2.55,6.34-5.67,7.11-2.84.7-5.26-.11-7.21-2.25-1.55-1.69-2.15-3.74-2.09-6,0-.39-.06-.58-.5-.69-.86-.22-1.17-.93-1.26-1.74-.06-.57-.06-1.16-.05-1.73,0-.27-.08-.37-.34-.45-2.42-.74-4.25-2.19-5.43-4.44-.75-1.43-.9-2.97-.85-4.55,0-.26.16-.21.31-.22q.91-.03.91-.94c0-2.21,0-4.41,0-6.62,0-1.64.72-2.63,2.28-3.14.17-.06.25-.15.32-.29.44-.84,1.28-1.18,2.17-.92.78.23,1.31,1.04,1.23,1.89-.07.86-.72,1.52-1.62,1.62-.73.08-1.33-.22-1.71-.85-.16-.27-.28-.26-.51-.14-.66.37-.98.94-.98,1.69,0,1.5,0,3,0,4.51,0,.92.02,1.85-.01,2.77-.01.37.11.45.45.42.33-.03.66.01.98-.01.31-.03.4.08.39.39-.03.88-.01,1.75.35,2.58.95,2.16,3.16,3.37,5.5,3,2.26-.36,3.71-1.66,4.24-3.81.15-.6.15-1.21.13-1.82-.01-.27.08-.34.34-.34.85,0,.85-.02.85-.89,0-2.27-.02-4.54-.02-6.81,0-.72-.3-1.26-.91-1.64-.24-.15-.39-.19-.58.13-.4.67-1.14.93-1.92.76-.66-.14-1.21-.73-1.33-1.42-.13-.74.2-1.45.84-1.84.82-.5,1.98-.22,2.45.63.13.24.27.37.53.45,1.34.43,2.1,1.52,2.11,2.99.01,2.38.02,4.76,0,7.14,0,.43.11.59.54.52.14-.02.28,0,.42,0,.2-.02.26.05.27.26.31,4.11-2.22,7.78-6.19,8.93-.32.09-.45.21-.44.56.02.55,0,1.1-.04,1.64-.08.99-.57,1.56-1.53,1.82-.14.04-.22.07-.23.23-.16,2.93.98,5.72,3.78,7.09,2.84,1.39,6.24.24,7.85-2.58.7-1.23,1-2.55,1-3.95,0-3.79-.01-7.57,0-11.36.01-2.15.9-3.86,2.8-4.92,2.37-1.32,5.27-.42,6.63,1.97.62,1.08.82,2.25.78,3.47-.01.37.07.53.47.63,1.96.49,3.31,2.43,3.12,4.4-.21,2.09-1.88,3.73-3.9,3.84-2.11.11-3.97-1.26-4.4-3.25-.49-2.25.8-4.41,3.03-5,.42-.11.48-.28.48-.66,0-1.1-.14-2.16-.79-3.08-.85-1.2-2.01-1.86-3.49-1.7-1.52.16-2.56,1.07-3.18,2.46-.28.61-.36,1.26-.36,1.92,0,1.96,0,3.91,0,6.27ZM20.63,33.27c2.43-.03,4.31-.67,5.88-2.12,1.38-1.27,2.18-2.84,2.27-4.73,0-.12.11-.33-.09-.35-.32-.04-.68-.08-.98.02-.25.08-.08.41-.14.63-.03.12-.04.25-.06.37-.6,2.68-2.26,4.28-4.93,4.84-3.37.71-7.27-1.35-7.59-5.57-.02-.25-.1-.32-.33-.31-.39.02-.78.02-1.17,0-.26-.01-.31.08-.3.32.03.78.17,1.53.49,2.23,1.41,3.11,3.95,4.49,6.95,4.67ZM46.82,32.66c0-1.64-1.33-2.98-2.97-3.01-1.62-.03-3.02,1.37-3.02,3.01,0,1.63,1.34,2.98,2.98,2.99,1.66.02,3.02-1.33,3.01-3ZM20.98,34.46c-.31-.02-.64-.03-.96-.05-.14,0-.25,0-.24.19.02.51-.05,1.03.06,1.54.14.65.25.73.91.73.2,0,.41-.02.61,0,.47.05.67-.2.77-.62.13-.54.05-1.09.08-1.63.01-.21-.11-.22-.27-.21-.31.02-.62.03-.95.05ZM17.99,14.59c-.08-.31-.26-.55-.63-.54-.37.01-.58.26-.56.61.01.35.23.58.6.57.36-.02.54-.25.59-.63ZM24.57,15.23c.39-.02.6-.24.61-.59,0-.35-.21-.59-.58-.59-.36,0-.59.22-.59.58,0,.36.23.55.57.6Z"/>
        <path class="cls-1" d="M45.62,32.69c0,.99-.82,1.78-1.8,1.77-1.01,0-1.81-.83-1.79-1.84.02-.97.87-1.79,1.83-1.76.99.03,1.77.84,1.76,1.82ZM43.82,33.26c.32,0,.62-.29.59-.6-.03-.33-.21-.55-.57-.58-.33-.02-.61.25-.61.57,0,.33.26.6.58.61Z"/>
      </g>
    </g>
  </g>
</svg>