<?xml version="1.0" encoding="UTF-8"?>
<svg xmlns="http://www.w3.org/2000/svg" version="1.1" viewBox="0 0 100 100">
  <defs>
    <style>
      .cls-1 {
        fill: none;
        stroke: #fff;
        stroke-miterlimit: 10;
        stroke-width: .87px;
      }

      .cls-2 {
        fill: #fff;
      }
    </style>
  </defs>
  <!-- Generator: Adobe Illustrator 28.7.1, SVG Export Plug-In . SVG Version: 1.2.0 Build 142)  -->
  <g>
    <g id="Layer_1">
      <g>
        <circle class="cls-1" cx="50" cy="50" r="31.06"/>
        <g>
          <path class="cls-2" d="M48.56,47.87c1.05-4.73,2.59-5.97,7.42-5.97,1.6,0,3.2-.03,4.81,0,3.18.07,5.55,2.17,5.66,5.29.13,3.73.1,7.48,0,11.21-.06,2.35-1.34,4.04-3.56,4.83-1.03.37-1.39.81-1.38,1.95.03,4.96-.02,4.96-5,4.96-5.27,0-10.55-.08-15.82.04-1.83.04-2.44-.55-2.16-2.27.03-.2,0-.4,0-.6,0-3.56,0-3.6-3.44-3.66-1.18-.02-1.67-.32-1.64-1.59.08-3.07-.02-6.14.04-9.21.06-2.88,1.98-5.32,4.79-5.53,3.41-.25,6.9-.64,10.27.53ZM51.77,59.19c2.7,1.08,3.02,1.5,3.5,4.62.2,1.32.44,2.63.55,3.96.16,1.97,1.62,1.34,2.71,1.41,1.14.07,1.7-.5,1.65-1.69-.05-1.2.04-2.4-.03-3.6-.06-1.04.24-1.46,1.37-1.68,2.45-.49,3.58-2.04,3.6-4.56.03-3.27.03-6.54,0-9.81-.03-2.6-1.54-4.36-4.1-4.53-2.26-.15-4.54-.15-6.8.02-2.48.19-3.9,1.89-3.98,4.42-.02.53.02,1.07-.01,1.6-.08,1.17-.66,1.51-1.51.65-1.21-1.22-2.67-1.36-4.24-1.34-1.6.03-3.2-.02-4.8.01-3.11.06-4.66,1.57-4.73,4.69-.05,2.53,0,5.07-.02,7.61-.01,1.38.17,2.12,1.94,1.55,2.51-.81,3.06-.28,3.06,2.3,0,.87,0,1.74,0,2.6.01,1.86.42,2.11,2.25,1.7,1.15-.26,1.61-.87,1.68-2,.06-1.06.34-2.11.37-3.17.08-2.37.95-4.1,3.51-4.6-2.25-2.69-2.41-4.89-.58-6.54,1.46-1.32,3.88-1.26,5.26.13,1.71,1.71,1.5,3.77-.63,6.28ZM49.75,68.8c1.52-.16,3.51.62,4.43-.34.82-.87-.13-2.77-.27-4.22-.05-.53-.06-1.07-.19-1.58-.3-1.15-1.04-1.84-2.27-1.87-.73-.02-1.47,0-2.2,0-2.78,0-3.45.54-3.66,3.28-.11,1.52-1.15,3.43-.26,4.41.88.96,2.91.17,4.42.33ZM49.67,58.06c1.52-.04,2.33-.92,2.49-2.34.14-1.31-1.19-2.61-2.54-2.51-1.49.11-2.37,1.04-2.36,2.46.01,1.42.9,2.31,2.41,2.39Z"/>
          <path class="cls-2" d="M41.57,34.99c4.4.19,6.5,2.04,6.36,5.59-.12,3.05-2.77,5.49-5.82,5.37-3.05-.12-5.52-2.76-5.43-5.8.09-2.84,2.38-5.27,4.89-5.16ZM42.3,44.49c2.31,0,4.2-1.84,4.24-4.12.04-2.32-2-4.36-4.3-4.31-2.24.05-4.14,2.02-4.11,4.28.03,2.33,1.85,4.15,4.18,4.15Z"/>
          <path class="cls-2" d="M63.24,35.25c-.13,3.07-2.77,5.5-5.82,5.36-3.05-.15-5.52-2.81-5.41-5.82.12-3.18,2.77-5.58,5.97-5.41,3.1.16,5.39,2.72,5.26,5.87ZM57.66,39.15c2.3,0,4.21-1.86,4.24-4.13.04-2.32-1.99-4.32-4.34-4.27-2.3.05-4.1,1.93-4.08,4.26.02,2.34,1.83,4.13,4.17,4.13Z"/>
        </g>
      </g>
    </g>
  </g>
</svg>