<?xml version="1.0" encoding="UTF-8"?>
<svg xmlns="http://www.w3.org/2000/svg" version="1.1" xmlns:xlink="http://www.w3.org/1999/xlink" viewBox="0 0 101.62 101.62">
  <defs>
    <style>
      .cls-1 {
        fill: transparent;
      }
      .cls-2 {
        fill: url(#New_Gradient_Swatch);
      }
    </style>
    <linearGradient id="New_Gradient_Swatch" data-name="New Gradient Swatch" x1="8.77" y1="50.81" x2="92.85" y2="50.81" gradientUnits="userSpaceOnUse">
      <stop offset="0" stop-color="#1c75bc"/>
      <stop offset="1" stop-color="#27aae1"/>
    </linearGradient>
  </defs>
  <!-- Generator: Adobe Illustrator 28.7.1, SVG Export Plug-In . SVG Version: 1.2.0 Build 142)  -->
  <g>
    <g id="Layer_1">
      <rect class="cls-1" width="101.62" height="101.62"/>
      <g>
        <path class="cls-2" d="M50.69,92.78c-11.57-.12-21.52-4.17-29.69-12.4-8.18-8.25-12.24-18.34-12.24-29.84,0-10.32,3.58-19.59,10.45-27.35,8.49-9.6,19.37-14.49,32.12-14.36,22.62.24,41.89,18.44,41.51,42.82-.35,22.2-18.47,41.44-42.15,41.13ZM79.61,74.83c.13-.97-.08-1.86-.22-2.74-.52-3.13-1.5-6.08-3.25-8.76-2.54-3.88-6.25-6.12-10.54-7.52-1.01-.33-2.05-.55-3.07.35-1.33,1.17-2.96,1.96-4.66,2.36-6.75,1.59-13.29,1.44-19.25-2.71-.46-.32-.91-.42-1.49-.27-3.81.93-7.22,2.54-9.89,5.51-3.81,4.24-5.11,9.36-5.31,14.88-.02.52.32.81.62,1.14,4.6,5.02,10.18,8.51,16.65,10.58,4.55,1.46,9.2,1.97,13.98,1.7,3.78-.21,7.43-.96,10.98-2.24,4.7-1.7,8.9-4.29,12.58-7.63,1.36-1.24,3.47-2.21,2.88-4.64ZM50.88,52.98c9.09.34,17.28-7.28,17.14-17.27-.13-9.29-7.43-16.69-16.89-16.89-9.66-.21-17.17,7.67-17.45,16.69-.3,9.78,8.24,18,17.2,17.47Z"/>
        <path class="cls-1" d="M79.61,74.83c.58,2.43-1.52,3.4-2.88,4.64-3.68,3.35-7.88,5.93-12.58,7.63-3.55,1.29-7.19,2.03-10.98,2.24-4.77.27-9.43-.24-13.98-1.7-6.47-2.07-12.05-5.57-16.65-10.58-.3-.33-.64-.62-.62-1.14.2-5.52,1.5-10.65,5.31-14.88,2.67-2.97,6.08-4.58,9.89-5.51.58-.14,1.04-.04,1.49.27,5.96,4.15,12.5,4.3,19.25,2.71,1.71-.4,3.34-1.2,4.66-2.36,1.02-.9,2.06-.67,3.07-.35,4.29,1.4,8,3.64,10.54,7.52,1.76,2.68,2.73,5.63,3.25,8.76.15.88.35,1.77.22,2.74Z"/>
        <path class="cls-1" d="M50.88,52.98c-8.96.53-17.5-7.69-17.2-17.47.28-9.02,7.79-16.9,17.45-16.69,9.46.2,16.76,7.6,16.89,16.89.14,9.99-8.05,17.6-17.14,17.27Z"/>
      </g>
    </g>
  </g>
</svg>